<svg width="36" height="36" viewBox="0 0 36 36" fill="none" xmlns="http://www.w3.org/2000/svg">
<g clip-path="url(#clip0_85_1103)">
<path d="M30 7.5C30.3978 7.5 30.7794 7.65804 31.0607 7.93934C31.342 8.22064 31.5 8.60218 31.5 9C31.5 9.39782 31.342 9.77936 31.0607 10.0607C30.7794 10.342 30.3978 10.5 30 10.5H28.5L28.4955 10.6065L27.096 30.213C27.0421 30.9699 26.7034 31.6782 26.1482 32.1954C25.5929 32.7125 24.8623 33 24.1035 33H11.895C11.1362 33 10.4056 32.7125 9.85033 32.1954C9.29505 31.6782 8.95637 30.9699 8.9025 30.213L7.503 10.608C7.50072 10.572 7.49972 10.536 7.5 10.5H6C5.60218 10.5 5.22064 10.342 4.93934 10.0607C4.65804 9.77936 4.5 9.39782 4.5 9C4.5 8.60218 4.65804 8.22064 4.93934 7.93934C5.22064 7.65804 5.60218 7.5 6 7.5H30ZM25.4955 10.5H10.5045L11.8965 30H24.1035L25.4955 10.5ZM21 3C21.3978 3 21.7794 3.15804 22.0607 3.43934C22.342 3.72064 22.5 4.10218 22.5 4.5C22.5 4.89782 22.342 5.27936 22.0607 5.56066C21.7794 5.84196 21.3978 6 21 6H15C14.6022 6 14.2206 5.84196 13.9393 5.56066C13.658 5.27936 13.5 4.89782 13.5 4.5C13.5 4.10218 13.658 3.72064 13.9393 3.43934C14.2206 3.15804 14.6022 3 15 3H21Z" fill="white"/>
</g>
<defs>
<clipPath id="clip0_85_1103">
<rect width="36" height="36" fill="white"/>
</clipPath>
</defs>
</svg>
