<svg width="800" height="800" viewBox="0 0 800 800" fill="none" xmlns="http://www.w3.org/2000/svg">
<path d="M0 0H800L184 404L0 291V0Z" fill="#052A59"/>
<path d="M620 0H800L184 404L91.5 347L620 0Z" fill="#173F72"/>
<path d="M800 0V800L184 404L800 0Z" fill="#732666"/>
<path d="M712.5 57L800 0V96V117.5L776.719 133.031L738.125 158.375L583.75 259.75L275 462.5L184 404L712.5 57Z" fill="#6C3D64"/>
<path d="M0 291L184 404L800 800H0V291Z" fill="#D93D66"/>
<path d="M184 404L800 800H610L0 413V291L184 404Z" fill="#DF4F75"/>
</svg>
