<svg width="36" height="36" viewBox="0 0 36 36" fill="none" xmlns="http://www.w3.org/2000/svg">
<path d="M31.5 18C31.1022 18 30.7206 18.1581 30.4393 18.4394C30.158 18.7207 30 19.1022 30 19.5V28.5C30 28.8979 29.842 29.2794 29.5607 29.5607C29.2794 29.842 28.8978 30 28.5 30H7.5C7.10218 30 6.72064 29.842 6.43934 29.5607C6.15804 29.2794 6 28.8979 6 28.5V7.50003C6 7.10221 6.15804 6.72068 6.43934 6.43937C6.72064 6.15807 7.10218 6.00003 7.5 6.00003H16.5C16.8978 6.00003 17.2794 5.842 17.5607 5.56069C17.842 5.27939 18 4.89786 18 4.50003C18 4.10221 17.842 3.72067 17.5607 3.43937C17.2794 3.15807 16.8978 3.00003 16.5 3.00003H7.5C6.30653 3.00003 5.16193 3.47414 4.31802 4.31805C3.47411 5.16196 3 6.30656 3 7.50003V28.5C3 29.6935 3.47411 30.8381 4.31802 31.682C5.16193 32.5259 6.30653 33 7.5 33H28.5C29.6935 33 30.8381 32.5259 31.682 31.682C32.5259 30.8381 33 29.6935 33 28.5V19.5C33 19.1022 32.842 18.7207 32.5607 18.4394C32.2794 18.1581 31.8978 18 31.5 18ZM9 19.14V25.5C9 25.8979 9.15804 26.2794 9.43934 26.5607C9.72064 26.842 10.1022 27 10.5 27H16.86C17.0574 27.0012 17.2531 26.9633 17.4359 26.8887C17.6186 26.814 17.7848 26.7041 17.925 26.565L28.305 16.17L32.565 12C32.7056 11.8606 32.8172 11.6947 32.8933 11.5119C32.9695 11.3291 33.0087 11.133 33.0087 10.935C33.0087 10.737 32.9695 10.541 32.8933 10.3582C32.8172 10.1754 32.7056 10.0095 32.565 9.87003L26.205 3.43503C26.0656 3.29444 25.8997 3.18285 25.7169 3.10669C25.5341 3.03054 25.338 2.99133 25.14 2.99133C24.942 2.99133 24.7459 3.03054 24.5631 3.10669C24.3803 3.18285 24.2144 3.29444 24.075 3.43503L19.845 7.68003L9.435 18.075C9.29598 18.2152 9.18599 18.3814 9.11134 18.5642C9.0367 18.7469 8.99886 18.9426 9 19.14ZM25.14 6.61503L29.385 10.86L27.255 12.99L23.01 8.74503L25.14 6.61503ZM12 19.755L20.895 10.86L25.14 15.105L16.245 24H12V19.755Z" fill="white"/>
</svg>
