<svg width="36" height="36" viewBox="0 0 36 36" fill="none" xmlns="http://www.w3.org/2000/svg">
<path d="M30.5157 25.7344H28.0442C27.8754 25.7344 27.7172 25.8083 27.6118 25.9383C27.3657 26.2372 27.102 26.5254 26.8243 26.7997C25.6883 27.9367 24.3428 28.8429 22.8622 29.468C21.3281 30.1159 19.6794 30.4483 18.0141 30.4454C16.3301 30.4454 14.6989 30.1149 13.1661 29.468C11.6854 28.8429 10.3399 27.9367 9.20396 26.7997C8.066 25.6664 7.15862 24.3233 6.53208 22.8446C5.88169 21.3118 5.55474 19.684 5.55474 18.0001C5.55474 16.3161 5.88521 14.6883 6.53208 13.1555C7.15786 11.6754 8.05786 10.343 9.20396 9.20044C10.35 8.05787 11.6825 7.15787 13.1661 6.53208C14.6989 5.88521 16.3301 5.55474 18.0141 5.55474C19.6981 5.55474 21.3293 5.88169 22.8622 6.53208C24.3458 7.15787 25.6782 8.05787 26.8243 9.20044C27.102 9.47818 27.3622 9.76646 27.6118 10.0618C27.7172 10.1919 27.879 10.2657 28.0442 10.2657H30.5157C30.7372 10.2657 30.8743 10.0196 30.7512 9.83326C28.0547 5.64263 23.3368 2.8688 17.9754 2.88287C9.552 2.90396 2.79849 9.74185 2.88286 18.1547C2.96724 26.434 9.71021 33.1172 18.0141 33.1172C23.3614 33.1172 28.0583 30.3469 30.7512 26.1669C30.8708 25.9805 30.7372 25.7344 30.5157 25.7344ZM33.6411 17.7786L28.6524 13.8411C28.4661 13.6934 28.1954 13.827 28.1954 14.0626V16.7344H17.1563C17.0016 16.7344 16.875 16.861 16.875 17.0157V18.9844C16.875 19.1391 17.0016 19.2657 17.1563 19.2657H28.1954V21.9376C28.1954 22.1731 28.4696 22.3067 28.6524 22.159L33.6411 18.2215C33.6747 18.1952 33.7019 18.1616 33.7206 18.1232C33.7393 18.0849 33.749 18.0427 33.749 18.0001C33.749 17.9574 33.7393 17.9152 33.7206 17.8769C33.7019 17.8385 33.6747 17.8049 33.6411 17.7786Z" fill="white"/>
</svg>
